<svg width="32" height="32" viewBox="0 0 32 32" fill="none" xmlns="http://www.w3.org/2000/svg">
<circle cx="16" cy="16" r="16" fill="#EFEDED"/>
<path d="M19.3334 16.75V20.25C19.3334 23.1667 18.1667 24.3334 15.2501 24.3334H11.7501C8.83341 24.3334 7.66675 23.1667 7.66675 20.25V16.75C7.66675 13.8334 8.83341 12.6667 11.7501 12.6667H15.2501C18.1667 12.6667 19.3334 13.8334 19.3334 16.75Z" fill="#368CB2"/>
<path d="M20.25 7.66669H16.75C14.2466 7.66669 13.0385 8.53234 12.746 10.6158C12.6686 11.1673 13.13 11.625 13.687 11.625H15.25C18.75 11.625 20.375 13.25 20.375 16.75V18.3131C20.375 18.87 20.8328 19.3315 21.3843 19.2541C23.4677 18.9616 24.3334 17.7535 24.3334 15.25V11.75C24.3334 8.83335 23.1667 7.66669 20.25 7.66669Z" fill="#368CB2"/>
</svg>
