<svg width="125" height="55" viewBox="0 0 125 55" fill="none" xmlns="http://www.w3.org/2000/svg">
<path d="M0.740234 36.3789C0.740234 35.0898 1.16016 34.1914 2 33.6836C2.85938 33.1562 3.66016 32.8926 4.40234 32.8926C4.79297 32.8926 5.20312 32.9512 5.63281 33.0684C5.59375 33.498 5.57422 33.9082 5.57422 34.2988C5.57422 35.5488 5.7793 36.6133 6.18945 37.4922C6.63867 38.4492 7.36133 38.9277 8.35742 38.9277C8.5918 38.9277 8.83594 38.8984 9.08984 38.8398C9.63672 38.5859 10.0371 38.166 10.291 37.5801C10.5645 36.9941 10.7012 36.3691 10.7012 35.7051C10.6035 34.9629 9.36328 33.0781 6.98047 30.0508C6.55078 29.4648 6.0918 28.8496 5.60352 28.2051C4.8418 27.0332 4.46094 25.7832 4.46094 24.4551C4.46094 23.9473 4.51953 23.4297 4.63672 22.9023C5.04688 21.0078 5.97461 19.6797 7.41992 18.918C8.86523 18.1562 10.2812 17.7754 11.668 17.7754C12.9961 17.7754 14.5293 18.0195 16.2676 18.5078C18.4941 19.3086 19.832 20.9395 20.2812 23.4004C20.2812 24.6699 19.8516 25.6074 18.9922 26.2129C18.1328 26.7988 17.2539 27.0918 16.3555 27.0918C16.1406 27.0918 15.9258 27.0723 15.7109 27.0332C15.7305 26.8379 15.7402 26.6328 15.7402 26.418C15.7402 24.8555 15.3203 23.5176 14.4805 22.4043C13.875 21.5645 13.1816 21.1445 12.4004 21.1445C11.9902 21.1445 11.5508 21.2617 11.082 21.4961C10.4766 22.1016 10.1738 22.7168 10.1738 23.3418C10.1738 23.5371 10.2129 23.7422 10.291 23.957C10.584 24.7969 10.9648 25.4805 11.4336 26.0078C11.5898 26.2031 11.7559 26.3984 11.9316 26.5938C12.5762 27.3945 13.25 28.1953 13.9531 28.9961C14.8516 29.9922 15.623 31.0273 16.2676 32.1016C16.9512 33.5078 17.293 34.8652 17.293 36.1738C17.293 36.8379 17.2051 37.4922 17.0293 38.1367C16.5215 40.0703 15.2422 41.457 13.1914 42.2969C12.4492 42.6484 11.5605 42.8535 10.5254 42.9121C9.49023 42.9707 8.875 43 8.67969 43C6.98047 43 5.34961 42.5898 3.78711 41.7695C2.0293 40.8516 1.01367 39.0547 0.740234 36.3789ZM21.2773 40.0996C20.5742 38.6348 20.2227 37.0332 20.2227 35.2949C20.2227 33.3809 20.6523 31.3105 21.5117 29.084C23.1328 24.8457 25.6328 21.6035 29.0117 19.3574C30.6523 18.3809 32.2344 17.8926 33.7578 17.8926C35.3398 17.8926 36.8633 18.4004 38.3281 19.416C39.3438 20.1387 39.8516 21.2324 39.8516 22.6973C39.8516 23.166 39.8027 23.6738 39.7051 24.2207C39.2949 26.4668 37.5273 28.9766 34.4023 31.75C31.5312 34.5234 28.6406 36.4082 25.7305 37.4043L25.7891 37.6387C25.8672 38.2246 26.209 38.6055 26.8145 38.7812C27.4199 38.9375 27.8789 39.0156 28.1914 39.0156C29.0703 39.0156 30.1445 38.7324 31.4141 38.166C33.1719 37.4043 35.2812 35.7734 37.7422 33.2734H37.7715C37.8496 33.2734 37.8984 33.4297 37.918 33.7422V33.9473C37.918 34.2988 37.8789 34.7383 37.8008 35.2656C37.7031 35.8906 37.5371 36.5352 37.3027 37.1992C37.0879 37.8438 36.7754 38.4102 36.3652 38.8984C35.5254 40.1484 34.207 41.1445 32.4102 41.8867C30.6133 42.6289 28.875 43 27.1953 43C26.8242 43 26.4531 42.9805 26.082 42.9414C24.0117 42.7656 22.4102 41.8184 21.2773 40.0996ZM35.6035 23.166C35.4277 23.127 35.2422 23.1074 35.0469 23.1074C34.1875 23.1074 33.2305 23.5566 32.1758 24.4551C30.8867 25.5684 29.6855 26.9844 28.5723 28.7031C27.459 30.4023 26.6387 32.0137 26.1113 33.5371C27.6934 32.7363 29.334 31.5742 31.0332 30.0508C32.7324 28.5273 33.9727 27.209 34.7539 26.0957C35.5352 24.9824 35.9258 24.2012 35.9258 23.752C35.9258 23.4785 35.8184 23.2832 35.6035 23.166ZM61.502 13.3516H61.7363C62.2051 13.3516 62.5762 13.4688 62.8496 13.7031C63.123 13.9375 63.25 14.2109 63.2305 14.5234C63.2305 14.8164 63.0742 15.0215 62.7617 15.1387L53.709 16.3691L47.3516 37.082L50.5449 32.0137C50.6816 31.8574 50.8672 31.7793 51.1016 31.7793C51.1992 31.7793 51.375 31.8184 51.6289 31.8965C51.8828 31.9746 52.1465 32.1797 52.4199 32.5117C52.5957 32.7266 52.6836 32.9414 52.6836 33.1562C52.6836 33.293 52.6543 33.4297 52.5957 33.5664L47.791 41.7402C47.166 42.541 46.4531 42.9414 45.6523 42.9414C45.5938 42.9414 45.3203 42.9316 44.832 42.9121C44.3633 42.8926 43.6504 42.4629 42.6934 41.623C41.9512 41.1934 41.2383 40.3633 40.5547 39.1328C40.3008 38.6836 40.1738 38.1074 40.1738 37.4043C40.1738 36.0762 40.5938 34.2891 41.4336 32.043C41.6875 31.2617 42.2441 29.4844 43.1035 26.7109C43.9824 23.918 44.9395 20.8125 45.9746 17.3945L44.627 17.5703C43.709 17.6875 42.8887 17.7461 42.166 17.7461C39.666 17.7461 38.416 16.9941 38.416 15.4902C38.416 14.9043 38.6016 14.2012 38.9727 13.3809C40.8867 13.7324 43.4062 13.9082 46.5312 13.9082H47.0293C47.8301 11.252 48.4844 8.9668 48.9922 7.05273C49.5195 5.13867 49.793 3.94727 49.8125 3.47852C53.543 4.04492 55.4082 5.94922 55.4082 9.19141C55.4082 10.2656 55.2031 11.4863 54.793 12.8535L54.5293 13.7031C56.7949 13.6055 59.1191 13.4883 61.502 13.3516ZM80.3105 38.1367C82.9277 43.5664 86.0039 46.9453 89.5391 48.2734C88.0156 50.1289 86.0234 51.1836 83.5625 51.4375C83.4062 51.457 83.25 51.4668 83.0938 51.4668C80.8477 51.4668 78.8652 49.748 77.1465 46.3105C76.502 44.748 75.9062 43.1855 75.3594 41.623C73.4258 42.5215 71.5117 42.9707 69.6172 42.9707C68.3086 42.9707 66.5508 42.5996 64.3438 41.8574C62.1367 41.1152 60.4766 38.5664 59.3633 34.2109C59.0312 32.5703 58.8652 30.9492 58.8652 29.3477C58.8652 23.6445 60.8867 18.1465 64.9297 12.8535C65.7109 11.9551 66.541 11.5059 67.4199 11.5059C67.9473 11.5059 68.7285 11.8184 69.7637 12.4434C70.8184 13.0684 72.0195 14.2109 73.3672 15.8711C70.1055 16.9648 67.6738 19.7773 66.0723 24.3086C65.5254 26.8086 65.252 28.9473 65.252 30.7246C65.252 34.9434 66.8242 37.0527 69.9688 37.0527C70.1445 37.0527 70.3203 37.043 70.4961 37.0234C71.4141 36.8672 72.3516 36.5547 73.3086 36.0859C72.4492 33.8203 71.502 32.0625 70.4668 30.8125C69.6855 29.8555 68.8066 29.377 67.8301 29.377C67.5176 29.377 67.1953 29.4258 66.8633 29.5234C68.2695 27.5703 69.7637 26.5938 71.3457 26.5938C71.7559 26.5938 72.5664 26.7891 73.7773 27.1797C74.9883 27.5508 76.1113 29.0938 77.1465 31.8086C77.2051 31.9453 77.2637 32.0723 77.3223 32.1895C77.3613 32.2676 77.4004 32.3555 77.4395 32.4531C79.5098 29.8359 80.6914 25.5586 80.9844 19.6211V19.2402C80.9844 16.4082 80.3398 13.8496 79.0508 11.5645C77.7812 9.25977 75.6621 7.80469 72.6934 7.19922H72.5762C68.5527 7.19922 65.418 8.23437 63.1719 10.3047C60.9258 12.375 59.5586 14.7676 59.0703 17.4824C56.3945 15.9785 55.0566 14.1328 55.0566 11.9453C55.0566 11.6914 55.1543 10.8613 55.3496 9.45508C55.5449 8.0293 56.8926 6.27148 59.3926 4.18164C61.8926 2.07227 64.7246 1.01758 67.8887 1.01758C77.4785 1.23242 83.4258 4.65039 85.7305 11.2715C86.7852 14.2207 87.3125 17.1699 87.3125 20.1191C87.3125 22.0918 86.9023 24.8066 86.082 28.2637C85.2617 31.7207 83.3379 35.0117 80.3105 38.1367ZM102.84 26.5352C106.219 34.0547 109.529 39.5723 112.771 43.0879C115.389 45.9004 118.533 47.3066 122.205 47.3066C123.104 47.3066 124.021 47.2285 124.959 47.0723C123.025 51.7598 120.438 54.1035 117.195 54.1035C115.926 54.1035 113.611 53.2637 110.252 51.584C106.912 49.9238 102.771 42.8047 97.8301 30.2266L93.9922 43C91.9609 42.3359 90.4961 41.418 89.5977 40.2461C89.168 39.6797 88.9531 38.8887 88.9531 37.873C88.9531 36.7988 89.1973 35.4512 89.6855 33.8301C90.1152 32.5215 90.7988 30.3438 91.7363 27.2969C92.6738 24.2305 93.5332 21.2129 94.3145 18.2441C95.1152 15.2559 95.5352 13.2148 95.5742 12.1211C99.3047 12.668 101.17 14.5234 101.17 17.6875C101.17 18.7227 100.965 19.8945 100.555 21.2031L100.438 21.6133C103.035 20.5391 105.34 19.084 107.352 17.248C109.383 15.3926 110.73 13.5566 111.395 11.7402C111.609 11.1543 111.717 10.6172 111.717 10.1289C111.717 9.05469 111.229 8.17578 110.252 7.49219C108.826 6.92578 107.371 6.64258 105.887 6.64258C103.504 6.64258 100.613 7.58984 97.2148 9.48438C93.8164 11.3594 91.6094 14.3965 90.5938 18.5957C88.7578 16.1934 87.8398 13.9668 87.8398 11.916C87.8398 9.76758 88.8164 7.80469 90.7695 6.02734C94.5 2.64844 99.6367 0.958984 106.18 0.958984H106.854C112.576 1.34961 116.141 3.04883 117.547 6.05664C118.152 7.3457 118.455 8.68359 118.455 10.0703C118.455 11.9258 117.713 14.2695 116.229 17.1016C114.744 19.9336 111.893 22.4043 107.674 24.5137C105.818 25.334 104.207 26.0078 102.84 26.5352Z" fill="#48BBED"/>
</svg>
